<svg xmlns="http://www.w3.org/2000/svg" width="128" height="128" viewBox="0 0 128 128">
  <title>INVOICE</title>
  <g>
    <path d="M108.757,4.557H37.776a.367.367,0,0,0-.087.02,1.726,1.726,0,0,0-1.15.493L18.005,23.6a1.728,1.728,0,0,0-.491,1.146.354.354,0,0,0-.021.091v96.852a1.75,1.75,0,0,0,1.75,1.75h89.514a1.75,1.75,0,0,0,1.75-1.75V6.307A1.75,1.75,0,0,0,108.757,4.557ZM36.026,10.532V23.091H23.468Zm70.981,109.411H20.993V26.591H37.776a1.75,1.75,0,0,0,1.75-1.75V8.057h67.481Z"/>
    <path d="M62.611,34.5V40.03a9.7,9.7,0,0,1-4.567-2.439L56,40.116a11.626,11.626,0,0,0,6.609,3.035v1.9h2.581V43.236c4.114-.284,6.468-2.667,6.468-5.929,0-3.46-2.582-4.793-6.468-5.673V26.3a9.282,9.282,0,0,1,4.029,2.128l1.928-2.61a10.548,10.548,0,0,0-5.957-2.638V21.422H62.611v1.731c-3.489.425-5.843,2.78-5.843,5.843C56.768,32.343,59.122,33.591,62.611,34.5Zm2.581.652c2.014.6,2.922,1.192,2.922,2.5,0,1.248-.993,2.326-2.922,2.553Zm-2.581-8.906v4.708c-1.532-.538-2.269-1.134-2.269-2.269A2.677,2.677,0,0,1,62.611,26.245Z"/>
    <path d="M93.7,76.481H34.3a1.75,1.75,0,0,0,0,3.5H93.7a1.75,1.75,0,0,0,0-3.5Z"/>
    <path d="M93.7,90.683H34.3a1.75,1.75,0,0,0,0,3.5H93.7a1.75,1.75,0,0,0,0-3.5Z"/>
    <path d="M64,104.885H34.3a1.75,1.75,0,0,0,0,3.5H64a1.75,1.75,0,0,0,0-3.5Z"/>
    <path d="M32.55,64.029a1.751,1.751,0,0,0,1.75,1.75H93.7a1.75,1.75,0,1,0,0-3.5H34.3A1.751,1.751,0,0,0,32.55,64.029Z"/>
  </g>
</svg>
